<?xml version="1.0" encoding="UTF-8" standalone="no"?>
<!-- Created with Inkscape (http://www.inkscape.org/) -->

<svg
   xmlns:dc="http://purl.org/dc/elements/1.1/"
   xmlns:cc="http://creativecommons.org/ns#"
   xmlns:rdf="http://www.w3.org/1999/02/22-rdf-syntax-ns#"
   xmlns:svg="http://www.w3.org/2000/svg"
   xmlns="http://www.w3.org/2000/svg"
   xmlns:sodipodi="http://sodipodi.sourceforge.net/DTD/sodipodi-0.dtd"
   xmlns:inkscape="http://www.inkscape.org/namespaces/inkscape"
   width="50"
   height="50"
   id="svg2"
   version="1.1"
   inkscape:version="0.48.4 r9939"
   inkscape:export-filename="button_salvar_todos.png"
   inkscape:export-xdpi="90"
   inkscape:export-ydpi="90"
   sodipodi:docname="button_salvar_todos.svg">
  <defs
     id="defs4" />
  <sodipodi:namedview
     id="base"
     pagecolor="#000000"
     bordercolor="#666666"
     borderopacity="1.0"
     inkscape:pageopacity="0"
     inkscape:pageshadow="2"
     inkscape:zoom="11.313708"
     inkscape:cx="11.276341"
     inkscape:cy="24.340907"
     inkscape:document-units="px"
     inkscape:current-layer="layer1"
     showgrid="true"
     showborder="true"
     inkscape:showpageshadow="false"
     inkscape:window-width="1383"
     inkscape:window-height="772"
     inkscape:window-x="-8"
     inkscape:window-y="-8"
     inkscape:window-maximized="1"
     showguides="true"
     inkscape:guide-bbox="true"
     inkscape:snap-grids="true">
    <inkscape:grid
       empspacing="5"
       visible="true"
       enabled="true"
       snapvisiblegridlinesonly="true"
       spacingx="2.5px"
       spacingy="2.5px"
       type="xygrid"
       id="grid2985" />
  </sodipodi:namedview>
  <metadata
     id="metadata7">
    <rdf:RDF>
      <cc:Work
         rdf:about="">
        <dc:format>image/svg+xml</dc:format>
        <dc:type
           rdf:resource="http://purl.org/dc/dcmitype/StillImage" />
        <dc:title></dc:title>
      </cc:Work>
    </rdf:RDF>
  </metadata>
  <g
     inkscape:label="Layer 1"
     inkscape:groupmode="layer"
     id="layer1"
     transform="translate(0,-1002.3622)">
    <g
       id="g2993"
       transform="matrix(0.88777514,0,0,0.88777514,2.6736392,114.50325)">
      <path
         inkscape:connector-curvature="0"
         style="fill:#00ff00;fill-opacity:1;stroke:#000000;stroke-width:0.0052305;stroke-linecap:round;stroke-linejoin:round;stroke-miterlimit:4;stroke-opacity:1;stroke-dasharray:none"
         d="m 9.407719,1013.4262 c -0.692088,0 -1.242243,0.5501 -1.242243,1.2422 l 0,18.4375 c 0,0.6921 0.550155,1.2423 1.242243,1.2423 l 18.437508,0 c 0.692089,0 1.242243,-0.5502 1.242243,-1.2423 l 0,-17.0645 -2.615249,-2.6152 -2.615249,0 0,8.2379 -10.460997,0 0,-8.2379 -3.988256,0 z m 9.218755,0 0,4.3151 2.615249,0 0,-4.3151 -2.615249,0 z"
         id="path3932" />
      <path
         inkscape:connector-curvature="0"
         id="rect3813"
         d="m 22.352543,1022.3026 c -0.692088,0 -1.242243,0.5502 -1.242243,1.2423 l 0,18.4375 c 0,0.6921 0.550155,1.2422 1.242243,1.2422 l 18.437508,0 c 0.692089,0 1.242244,-0.5501 1.242244,-1.2422 l 0,-17.0645 -2.615249,-2.6153 -2.61525,0 0,8.238 -10.460997,0 0,-8.238 -3.988256,0 z m 9.218754,0 0,4.3151 2.61525,0 0,-4.3151 -2.61525,0 z"
         style="fill:#00ff00;fill-opacity:1;stroke:#000000;stroke-width:0.0052305;stroke-linecap:round;stroke-linejoin:round;stroke-miterlimit:4;stroke-opacity:1;stroke-dasharray:none" />
      <path
         sodipodi:nodetypes="cccccc"
         inkscape:connector-curvature="0"
         id="path3934"
         d="m 21.130247,1034.3745 -0.04623,-10.772 c 0.02919,-0.8028 0.433134,-1.2621 1.202019,-1.3869 l 4.022141,0 0,8.3217 2.773891,0"
         style="fill:none;stroke:#000000;stroke-width:0.16032109;stroke-linecap:butt;stroke-linejoin:miter;stroke-miterlimit:4;stroke-opacity:1;stroke-dasharray:none" />
    </g>
  </g>
</svg>
